<svg xmlns="http://www.w3.org/2000/svg" data-name="Layer 1" viewBox="0 0 100 125" x="0px" y="0px" fill="#e50914"><title>Notifcation Bell</title>
<path d="M50,72.29959h.00006a4.907,4.907,0,0,0,4.907-4.907H45.093A4.907,4.907,0,0,0,50,72.29959Z"/>
<path d="M68.51252,63.04123l-4.36737-4.86591V47.44589s1.01074-12.789-10.53583-14.97369V31.30814a3.60941,3.60941,0,0,0-7.21881,0V32.473c-11.52789,2.18738-10.53564,14.9729-10.53564,14.9729V58.17532l-4.36725,4.86584a1.3905,1.3905,0,0,0,.98309,2.37372H67.52906a1.39056,1.39056,0,0,0,.98346-2.37366Z"/></svg>